<svg width="103" height="113" viewBox="0 0 103 113" fill="none" xmlns="http://www.w3.org/2000/svg">
<path d="M67 8V10H69V49H38V50H34V49H3V10H5V8H1V51H32V52H40V51H71V8H67Z" fill="#FF4E46"/>
<path d="M53 13V12H54V11H53V10H51V11H50V12H51V13L48 20V21H56V20L53 13Z" fill="#C0A565"/>
<path d="M67.4 3.99998C63 3.99998 58.8 3.59998 55 2.99999C47.6 1.69999 42 0.999984 37 5.99998H35.1C30.1 0.999984 24.4 1.69999 17.1 2.99999C13.3 3.69998 10.3 3.99998 6 3.99998H4V47H34V48H38V47H68V3.99998H67.4ZM54.9 4.89998C58.4 5.49998 62 5.99998 66 5.99998V31.1C64 29.9 60.5 28.2 56 27.4V21H54V27H53V25H51V27H50V21H48V27.2C44.6 27.7 41 28.9 37 30.4V8.09998C43 2.89999 47.4 3.59998 54.9 4.89998ZM17 4.99998C24.2 3.69998 30 1.99999 35 8.09998V31.2C27.4 34 18 37.4 6 37.6V5.99998C9 5.89998 12.6 5.79998 17 4.99998ZM6 44V39.5C18 39.3 27.4 36.1 35 33.3V45C32 39 19 44 6 44ZM37 45V32.6C42.3 30.7 46.8 29 51 29C58.9 29 64.6 32.4 66 33.5V44C51 44 40 39 37 45Z" fill="#C0A565"/>
<path d="M19 24.2L20.1 23L22.7 27H25.1L21.5 21.4L25 17H22.5L19.9 20.3L19 21.6V17H17V27H19V24.2Z" fill="#C0A565"/>
<path d="M25 11L21 9L17 11V0H25V11Z" fill="#FF4E46"/>
<path d="M2.78099 67.9955H1.02599V77H2.78099V73.166L2.98349 72.9635L6.18299 77H8.50499L4.49549 72.1535L8.30249 67.9955H6.08849L2.78099 71.8025V67.9955ZM9.01451 67.9955L12.3625 74.489L11.107 77H13.024L17.1955 67.9955H15.2785L13.348 72.5315L11.0665 67.9955H9.01451ZM18.9686 67.9955V73.1525C18.9686 74.003 18.9821 74.786 18.5231 75.245C18.3746 75.3935 18.1181 75.569 17.7131 75.569C17.5241 75.569 17.3486 75.5285 17.2136 75.488V77C17.4566 77.054 17.6996 77.081 17.9561 77.081C18.8336 77.081 19.4006 76.784 19.7516 76.487C20.7506 75.6635 20.7236 74.435 20.7236 73.5035V69.5075H23.3426V77H25.0976V67.9955H18.9686ZM27.5535 77H30.726C31.482 77 32.6025 76.8785 33.2775 75.893C33.5745 75.461 33.7635 74.8805 33.7635 74.273C33.7635 73.409 33.426 72.7205 32.9265 72.2615C32.2245 71.6135 31.374 71.519 30.7125 71.519H29.3085V67.9955H27.5535V77ZM29.3085 73.031H30.3615C31.6575 73.031 31.9545 73.706 31.9545 74.273C31.9545 75.488 30.645 75.488 30.3345 75.488H29.3085V73.031ZM39.9904 69.5075V67.9955H34.1854V69.5075H36.2104V77H37.9654V69.5075H39.9904ZM40.5085 67.9955L43.8565 74.489L42.601 77H44.518L48.6895 67.9955H46.7725L44.842 72.5315L42.5605 67.9955H40.5085ZM50.1523 67.9955V77H51.9073V73.6655H53.0413C54.0808 73.6655 54.8233 73.3685 55.3228 72.869C56.0113 72.1805 56.0653 71.2085 56.0653 70.8575C56.0653 70.2095 55.8763 69.332 55.1473 68.684C54.4858 68.1035 53.7838 67.9955 52.7713 67.9955H50.1523ZM51.9073 69.5075H52.5148C52.9333 69.5075 53.3923 69.5345 53.7568 69.791C54.0133 69.98 54.2563 70.3175 54.2563 70.817C54.2563 71.2085 54.0943 71.6135 53.7703 71.87C53.3923 72.1535 52.9603 72.1535 52.6228 72.1535H51.9073V69.5075ZM59.5237 67.9955H57.7687V77H59.5237V72.9905H63.3307V77H65.0857V67.9955H63.3307V71.4785H59.5237V67.9955ZM71.9212 67.793C69.0862 67.793 67.1152 69.764 67.1152 72.5045C67.1152 75.245 69.0862 77.2025 71.9212 77.2025C74.7562 77.2025 76.7272 75.245 76.7272 72.5045C76.7272 69.764 74.7562 67.793 71.9212 67.793ZM71.9212 75.6095C70.1662 75.6095 68.9242 74.327 68.9242 72.5045C68.9242 70.682 70.1662 69.386 71.9212 69.386C73.6762 69.386 74.9182 70.682 74.9182 72.5045C74.9182 74.327 73.6762 75.6095 71.9212 75.6095ZM83.7446 67.9955H78.7496V77H83.7446V75.488H80.5046V73.031H83.6096V71.519H80.5046V69.5075H83.7446V67.9955ZM1.02599 84.9955V94H2.78099V86.5075H6.39899V94H8.15399V84.9955H1.02599ZM10.6068 84.9955V94H12.3618V90.6655H13.4958C14.5353 90.6655 15.2778 90.3685 15.7773 89.869C16.4658 89.1805 16.5198 88.2085 16.5198 87.8575C16.5198 87.2095 16.3308 86.332 15.6018 85.684C14.9403 85.1035 14.2383 84.9955 13.2258 84.9955H10.6068ZM12.3618 86.5075H12.9693C13.3878 86.5075 13.8468 86.5345 14.2113 86.791C14.4678 86.98 14.7108 87.3175 14.7108 87.817C14.7108 88.2085 14.5488 88.6135 14.2248 88.87C13.8468 89.1535 13.4148 89.1535 13.0773 89.1535H12.3618V86.5075ZM22.5972 84.793C19.7622 84.793 17.7912 86.764 17.7912 89.5045C17.7912 92.245 19.7622 94.2025 22.5972 94.2025C25.4322 94.2025 27.4032 92.245 27.4032 89.5045C27.4032 86.764 25.4322 84.793 22.5972 84.793ZM22.5972 92.6095C20.8422 92.6095 19.6002 91.327 19.6002 89.5045C19.6002 87.682 20.8422 86.386 22.5972 86.386C24.3522 86.386 25.5942 87.682 25.5942 89.5045C25.5942 91.327 24.3522 92.6095 22.5972 92.6095ZM35.9596 91.624C35.4331 92.245 34.6906 92.6095 33.8536 92.6095C32.3416 92.6095 30.8026 91.5295 30.8026 89.5315C30.8026 87.871 31.9771 86.386 33.7861 86.386C34.1101 86.386 35.1361 86.4535 35.9596 87.3985V85.3465C35.1361 84.901 34.3801 84.793 33.7456 84.793C32.4631 84.793 31.3426 85.1305 30.4381 85.981C29.6686 86.6965 28.9936 87.871 28.9936 89.5045C28.9936 90.8275 29.3986 91.948 30.4381 92.947C31.1941 93.6625 32.1526 94.2025 33.7321 94.2025C34.7041 94.2025 35.4196 93.9595 35.9596 93.676V91.624ZM42.838 86.5075V84.9955H37.033V86.5075H39.058V94H40.813V86.5075H42.838ZM44.3552 84.9955V94H46.1102V90.6655H47.2442C48.2837 90.6655 49.0262 90.3685 49.5257 89.869C50.2142 89.1805 50.2682 88.2085 50.2682 87.8575C50.2682 87.2095 50.0792 86.332 49.3502 85.684C48.6887 85.1035 47.9867 84.9955 46.9742 84.9955H44.3552ZM46.1102 86.5075H46.7177C47.1362 86.5075 47.5952 86.5345 47.9597 86.791C48.2162 86.98 48.4592 87.3175 48.4592 87.817C48.4592 88.2085 48.2972 88.6135 47.9732 88.87C47.5952 89.1535 47.1632 89.1535 46.8257 89.1535H46.1102V86.5075ZM57.5205 94H59.4105L55.617 84.8065H54.294L50.3925 94H52.296L53.0925 92.11H56.724L57.5205 94ZM53.646 90.679L54.942 87.439L56.211 90.679H53.646ZM62.6219 84.9955H60.8669V94H62.6219V89.9905H66.4289V94H68.1839V84.9955H66.4289V88.4785H62.6219V84.9955ZM77.1794 91.624C76.6529 92.245 75.9104 92.6095 75.0734 92.6095C73.5614 92.6095 72.0224 91.5295 72.0224 89.5315C72.0224 87.871 73.1969 86.386 75.0059 86.386C75.3299 86.386 76.3559 86.4535 77.1794 87.3985V85.3465C76.3559 84.901 75.5999 84.793 74.9654 84.793C73.6829 84.793 72.5624 85.1305 71.6579 85.981C70.8884 86.6965 70.2134 87.871 70.2134 89.5045C70.2134 90.8275 70.6184 91.948 71.6579 92.947C72.4139 93.6625 73.3724 94.2025 74.9519 94.2025C75.9239 94.2025 76.6394 93.9595 77.1794 93.676V91.624ZM84.0579 86.5075V84.9955H78.2529V86.5075H80.2779V94H82.0329V86.5075H84.0579ZM85.575 84.9955V94H88.599C89.382 94 90.2055 93.865 90.8805 93.271C91.5015 92.7175 91.65 91.975 91.65 91.4485C91.65 90.976 91.542 90.274 91.002 89.761C90.7725 89.545 90.4215 89.2885 89.8275 89.194C90.0705 89.059 90.84 88.5865 90.84 87.4255C90.84 86.6695 90.5295 85.9675 90.003 85.5625C89.274 84.9955 88.302 84.9955 87.8025 84.9955H85.575ZM87.33 86.4265H87.843C88.5585 86.4265 89.193 86.737 89.193 87.5605C89.193 88.708 88.0995 88.735 87.8295 88.735H87.33V86.4265ZM87.33 90.085H87.978C88.356 90.085 88.8015 90.085 89.1795 90.2605C89.7465 90.517 89.841 91.003 89.841 91.2865C89.841 91.6375 89.7195 92.0695 89.2875 92.326C88.896 92.5555 88.41 92.569 88.086 92.569H87.33V90.085ZM98.0532 84.793C95.2182 84.793 93.2472 86.764 93.2472 89.5045C93.2472 92.245 95.2182 94.2025 98.0532 94.2025C100.888 94.2025 102.859 92.245 102.859 89.5045C102.859 86.764 100.888 84.793 98.0532 84.793ZM98.0532 92.6095C96.2982 92.6095 95.0562 91.327 95.0562 89.5045C95.0562 87.682 96.2982 86.386 98.0532 86.386C99.8082 86.386 101.05 87.682 101.05 89.5045C101.05 91.327 99.8082 92.6095 98.0532 92.6095ZM7.55999 109.624C7.03349 110.245 6.29099 110.61 5.45399 110.61C3.94199 110.61 2.40299 109.53 2.40299 107.532C2.40299 105.871 3.57749 104.386 5.38649 104.386C5.71049 104.386 6.73649 104.453 7.55999 105.398V103.347C6.73649 102.901 5.98049 102.793 5.34599 102.793C4.06349 102.793 2.94299 103.13 2.03849 103.981C1.26899 104.696 0.593994 105.871 0.593994 107.505C0.593994 108.828 0.998994 109.948 2.03849 110.947C2.79449 111.662 3.75299 112.202 5.33249 112.202C6.30449 112.202 7.01999 111.959 7.55999 111.676V109.624ZM9.57845 102.995V112.175H10.7935L15.7615 105.925V112H17.5165V102.793H16.3015L11.3335 109.043V102.995H9.57845ZM19.9766 112H22.9601C23.7431 112 24.8636 111.879 25.5521 110.907C25.8626 110.461 26.0516 109.907 26.0516 109.3C26.0516 108.449 25.7141 107.761 25.2011 107.302C24.4991 106.681 23.6216 106.573 22.9466 106.573H21.7316V104.507H25.1876V102.995H19.9766V112ZM21.7316 108.085H22.5956C23.9321 108.085 24.2426 108.746 24.2426 109.313C24.2426 109.826 23.9726 110.488 22.5686 110.488H21.7316V108.085ZM28.0808 102.995V112.175H29.2958L34.2638 105.925V112H36.0188V102.793H34.8038L29.8358 109.043V102.995H28.0808ZM38.479 102.995V112H40.234V108.666H41.368C42.4075 108.666 43.15 108.368 43.6495 107.869C44.338 107.18 44.392 106.208 44.392 105.857C44.392 105.209 44.203 104.332 43.474 103.684C42.8125 103.103 42.1105 102.995 41.098 102.995H38.479ZM40.234 104.507H40.8415C41.26 104.507 41.719 104.535 42.0835 104.791C42.34 104.98 42.583 105.318 42.583 105.817C42.583 106.209 42.421 106.613 42.097 106.87C41.719 107.153 41.287 107.153 40.9495 107.153H40.234V104.507ZM46.0954 102.995V112.175H47.3104L52.2784 105.925V112H54.0334V102.793H52.8184L47.8504 109.043V102.995H46.0954Z" fill="#A9925C"/>
</svg>
