<svg width="103" height="113" viewBox="0 0 103 113" fill="none" xmlns="http://www.w3.org/2000/svg">
<path d="M66 0V2H68V41H37V42H33V41H2V2H4V0H0V43H31V44H39V43H70V0H66Z" transform="translate(1 8)" fill="#FF4E46"/>
<path d="M5 3V2H6V1H5V0H3V1H2V2H3V3L0 10V11H8V10L5 3Z" transform="translate(48 10)" fill="white"/>
<path d="M63.4 1.9456C59 1.9456 54.8 1.5456 51 0.945605C43.6 -0.354395 38 -1.0544 33 3.9456H31.1C26.1 -1.0544 20.4 -0.354395 13.1 0.945605C9.3 1.6456 6.3 1.9456 2 1.9456H0V44.9456H30V45.9456H34V44.9456H64V1.9456H63.4ZM50.9 2.8456C54.4 3.4456 58 3.9456 62 3.9456V29.0456C60 27.8456 56.5 26.1456 52 25.3456V18.9456H50V24.9456H49V22.9456H47V24.9456H46V18.9456H44V25.1456C40.6 25.6456 37 26.8456 33 28.3456V6.0456C39 0.845605 43.4 1.5456 50.9 2.8456ZM13 2.9456C20.2 1.6456 26 -0.0543952 31 6.0456V29.1456C23.4 31.9456 14 35.3456 2 35.5456V3.9456C5 3.8456 8.6 3.7456 13 2.9456ZM2 41.9456V37.4456C14 37.2456 23.4 34.0456 31 31.2456V42.9456C28 36.9456 15 41.9456 2 41.9456ZM33 42.9456V30.5456C38.3 28.6456 42.8 26.9456 47 26.9456C54.9 26.9456 60.6 30.3456 62 31.4456V41.9456C47 41.9456 36 36.9456 33 42.9456Z" transform="translate(4 2.05438)" fill="white"/>
<path d="M2 7.2L3.1 6L5.7 10H8.1L4.5 4.4L8 0H5.5L2.9 3.3L2 4.6V0H0V10H2V7.2Z" transform="translate(17 17)" fill="white"/>
<path d="M8 11L4 9L0 11V0H8V11Z" transform="translate(17)" fill="#FF4E46"/>
<path d="M2.781 0.9955H1.026V10H2.781V6.166L2.9835 5.9635L6.183 10H8.505L4.4955 5.1535L8.3025 0.9955H6.0885L2.781 4.8025V0.9955ZM9.01452 0.9955L12.3625 7.489L11.107 10H13.024L17.1955 0.9955H15.2785L13.348 5.5315L11.0665 0.9955H9.01452ZM18.9686 0.9955V6.1525C18.9686 7.003 18.9821 7.786 18.5231 8.245C18.3746 8.3935 18.1181 8.569 17.7131 8.569C17.5241 8.569 17.3486 8.5285 17.2136 8.488V10C17.4566 10.054 17.6996 10.081 17.9561 10.081C18.8336 10.081 19.4006 9.784 19.7516 9.487C20.7506 8.6635 20.7236 7.435 20.7236 6.5035V2.5075H23.3426V10H25.0976V0.9955H18.9686ZM27.5535 10H30.726C31.482 10 32.6025 9.8785 33.2775 8.893C33.5745 8.461 33.7635 7.8805 33.7635 7.273C33.7635 6.409 33.426 5.7205 32.9265 5.2615C32.2245 4.6135 31.374 4.519 30.7125 4.519H29.3085V0.9955H27.5535V10ZM29.3085 6.031H30.3615C31.6575 6.031 31.9545 6.706 31.9545 7.273C31.9545 8.488 30.645 8.488 30.3345 8.488H29.3085V6.031ZM39.9904 2.5075V0.9955H34.1854V2.5075H36.2104V10H37.9654V2.5075H39.9904ZM40.5085 0.9955L43.8565 7.489L42.601 10H44.518L48.6895 0.9955H46.7725L44.842 5.5315L42.5605 0.9955H40.5085ZM50.1523 0.9955V10H51.9073V6.6655H53.0413C54.0808 6.6655 54.8233 6.3685 55.3228 5.869C56.0113 5.1805 56.0653 4.2085 56.0653 3.8575C56.0653 3.2095 55.8763 2.332 55.1473 1.684C54.4858 1.1035 53.7838 0.9955 52.7713 0.9955H50.1523ZM51.9073 2.5075H52.5148C52.9333 2.5075 53.3923 2.5345 53.7568 2.791C54.0133 2.98 54.2563 3.3175 54.2563 3.817C54.2563 4.2085 54.0943 4.6135 53.7703 4.87C53.3923 5.1535 52.9603 5.1535 52.6228 5.1535H51.9073V2.5075ZM59.5237 0.9955H57.7687V10H59.5237V5.9905H63.3307V10H65.0857V0.9955H63.3307V4.4785H59.5237V0.9955ZM71.9212 0.793C69.0862 0.793 67.1152 2.764 67.1152 5.5045C67.1152 8.245 69.0862 10.2025 71.9212 10.2025C74.7562 10.2025 76.7272 8.245 76.7272 5.5045C76.7272 2.764 74.7562 0.793 71.9212 0.793ZM71.9212 8.6095C70.1662 8.6095 68.9242 7.327 68.9242 5.5045C68.9242 3.682 70.1662 2.386 71.9212 2.386C73.6762 2.386 74.9182 3.682 74.9182 5.5045C74.9182 7.327 73.6762 8.6095 71.9212 8.6095ZM83.7446 0.9955H78.7496V10H83.7446V8.488H80.5046V6.031H83.6096V4.519H80.5046V2.5075H83.7446V0.9955ZM1.026 17.9955V27H2.781V19.5075H6.399V27H8.154V17.9955H1.026ZM10.6068 17.9955V27H12.3618V23.6655H13.4958C14.5353 23.6655 15.2778 23.3685 15.7773 22.869C16.4658 22.1805 16.5198 21.2085 16.5198 20.8575C16.5198 20.2095 16.3308 19.332 15.6018 18.684C14.9403 18.1035 14.2383 17.9955 13.2258 17.9955H10.6068ZM12.3618 19.5075H12.9693C13.3878 19.5075 13.8468 19.5345 14.2113 19.791C14.4678 19.98 14.7108 20.3175 14.7108 20.817C14.7108 21.2085 14.5488 21.6135 14.2248 21.87C13.8468 22.1535 13.4148 22.1535 13.0773 22.1535H12.3618V19.5075ZM22.5972 17.793C19.7622 17.793 17.7912 19.764 17.7912 22.5045C17.7912 25.245 19.7622 27.2025 22.5972 27.2025C25.4322 27.2025 27.4032 25.245 27.4032 22.5045C27.4032 19.764 25.4322 17.793 22.5972 17.793ZM22.5972 25.6095C20.8422 25.6095 19.6002 24.327 19.6002 22.5045C19.6002 20.682 20.8422 19.386 22.5972 19.386C24.3522 19.386 25.5942 20.682 25.5942 22.5045C25.5942 24.327 24.3522 25.6095 22.5972 25.6095ZM35.9596 24.624C35.4331 25.245 34.6906 25.6095 33.8536 25.6095C32.3416 25.6095 30.8026 24.5295 30.8026 22.5315C30.8026 20.871 31.9771 19.386 33.7861 19.386C34.1101 19.386 35.1361 19.4535 35.9596 20.3985V18.3465C35.1361 17.901 34.3801 17.793 33.7456 17.793C32.4631 17.793 31.3426 18.1305 30.4381 18.981C29.6686 19.6965 28.9936 20.871 28.9936 22.5045C28.9936 23.8275 29.3986 24.948 30.4381 25.947C31.1941 26.6625 32.1526 27.2025 33.7321 27.2025C34.7041 27.2025 35.4196 26.9595 35.9596 26.676V24.624ZM42.838 19.5075V17.9955H37.033V19.5075H39.058V27H40.813V19.5075H42.838ZM44.3552 17.9955V27H46.1102V23.6655H47.2442C48.2837 23.6655 49.0262 23.3685 49.5257 22.869C50.2142 22.1805 50.2682 21.2085 50.2682 20.8575C50.2682 20.2095 50.0792 19.332 49.3502 18.684C48.6887 18.1035 47.9867 17.9955 46.9742 17.9955H44.3552ZM46.1102 19.5075H46.7177C47.1362 19.5075 47.5952 19.5345 47.9597 19.791C48.2162 19.98 48.4592 20.3175 48.4592 20.817C48.4592 21.2085 48.2972 21.6135 47.9732 21.87C47.5952 22.1535 47.1632 22.1535 46.8257 22.1535H46.1102V19.5075ZM57.5205 27H59.4105L55.617 17.8065H54.294L50.3925 27H52.296L53.0925 25.11H56.724L57.5205 27ZM53.646 23.679L54.942 20.439L56.211 23.679H53.646ZM62.6219 17.9955H60.8669V27H62.6219V22.9905H66.4289V27H68.1839V17.9955H66.4289V21.4785H62.6219V17.9955ZM77.1794 24.624C76.6529 25.245 75.9104 25.6095 75.0734 25.6095C73.5614 25.6095 72.0224 24.5295 72.0224 22.5315C72.0224 20.871 73.1969 19.386 75.0059 19.386C75.3299 19.386 76.3559 19.4535 77.1794 20.3985V18.3465C76.3559 17.901 75.5999 17.793 74.9654 17.793C73.6829 17.793 72.5624 18.1305 71.6579 18.981C70.8884 19.6965 70.2134 20.871 70.2134 22.5045C70.2134 23.8275 70.6184 24.948 71.6579 25.947C72.4139 26.6625 73.3724 27.2025 74.9519 27.2025C75.9239 27.2025 76.6394 26.9595 77.1794 26.676V24.624ZM84.0579 19.5075V17.9955H78.2529V19.5075H80.2779V27H82.0329V19.5075H84.0579ZM85.575 17.9955V27H88.599C89.382 27 90.2055 26.865 90.8805 26.271C91.5015 25.7175 91.65 24.975 91.65 24.4485C91.65 23.976 91.542 23.274 91.002 22.761C90.7725 22.545 90.4215 22.2885 89.8275 22.194C90.0705 22.059 90.84 21.5865 90.84 20.4255C90.84 19.6695 90.5295 18.9675 90.003 18.5625C89.274 17.9955 88.302 17.9955 87.8025 17.9955H85.575ZM87.33 19.4265H87.843C88.5585 19.4265 89.193 19.737 89.193 20.5605C89.193 21.708 88.0995 21.735 87.8295 21.735H87.33V19.4265ZM87.33 23.085H87.978C88.356 23.085 88.8015 23.085 89.1795 23.2605C89.7465 23.517 89.841 24.003 89.841 24.2865C89.841 24.6375 89.7195 25.0695 89.2875 25.326C88.896 25.5555 88.41 25.569 88.086 25.569H87.33V23.085ZM98.0532 17.793C95.2182 17.793 93.2472 19.764 93.2472 22.5045C93.2472 25.245 95.2182 27.2025 98.0532 27.2025C100.888 27.2025 102.859 25.245 102.859 22.5045C102.859 19.764 100.888 17.793 98.0532 17.793ZM98.0532 25.6095C96.2982 25.6095 95.0562 24.327 95.0562 22.5045C95.0562 20.682 96.2982 19.386 98.0532 19.386C99.8082 19.386 101.05 20.682 101.05 22.5045C101.05 24.327 99.8082 25.6095 98.0532 25.6095ZM7.56 42.624C7.0335 43.245 6.291 43.6095 5.454 43.6095C3.942 43.6095 2.403 42.5295 2.403 40.5315C2.403 38.871 3.5775 37.386 5.3865 37.386C5.7105 37.386 6.7365 37.4535 7.56 38.3985V36.3465C6.7365 35.901 5.9805 35.793 5.346 35.793C4.0635 35.793 2.943 36.1305 2.0385 36.981C1.269 37.6965 0.594 38.871 0.594 40.5045C0.594 41.8275 0.999 42.948 2.0385 43.947C2.7945 44.6625 3.753 45.2025 5.3325 45.2025C6.3045 45.2025 7.02 44.9595 7.56 44.676V42.624ZM9.57846 35.9955V45.1755H10.7935L15.7615 38.925V45H17.5165V35.793H16.3015L11.3335 42.0435V35.9955H9.57846ZM19.9766 45H22.9601C23.7431 45 24.8636 44.8785 25.5521 43.9065C25.8626 43.461 26.0516 42.9075 26.0516 42.3C26.0516 41.4495 25.7141 40.761 25.2011 40.302C24.4991 39.681 23.6216 39.573 22.9466 39.573H21.7316V37.5075H25.1876V35.9955H19.9766V45ZM21.7316 41.085H22.5956C23.9321 41.085 24.2426 41.7465 24.2426 42.3135C24.2426 42.8265 23.9726 43.488 22.5686 43.488H21.7316V41.085ZM28.0808 35.9955V45.1755H29.2958L34.2638 38.925V45H36.0188V35.793H34.8038L29.8358 42.0435V35.9955H28.0808ZM38.479 35.9955V45H40.234V41.6655H41.368C42.4075 41.6655 43.15 41.3685 43.6495 40.869C44.338 40.1805 44.392 39.2085 44.392 38.8575C44.392 38.2095 44.203 37.332 43.474 36.684C42.8125 36.1035 42.1105 35.9955 41.098 35.9955H38.479ZM40.234 37.5075H40.8415C41.26 37.5075 41.719 37.5345 42.0835 37.791C42.34 37.98 42.583 38.3175 42.583 38.817C42.583 39.2085 42.421 39.6135 42.097 39.87C41.719 40.1535 41.287 40.1535 40.9495 40.1535H40.234V37.5075ZM46.0954 35.9955V45.1755H47.3104L52.2784 38.925V45H54.0334V35.793H52.8184L47.8504 42.0435V35.9955H46.0954Z" transform="translate(0 67)" fill="white"/>
</svg>
